<?xml version="1.0" standalone="no"?><!-- Generator: Gravit.io --><svg xmlns="http://www.w3.org/2000/svg" xmlns:xlink="http://www.w3.org/1999/xlink" style="isolation:isolate" viewBox="0 0 512 512" width="512" height="512"><path d=" M 373.5 358 L 326.5 401 L 209.5 268 L 215.5 236 L 138.5 129 L 161.5 111 L 242.5 221 L 261.5 221 L 373.5 358 Z " fill="rgb(252,254,255)" vector-effect="non-scaling-stroke" stroke-width="1" stroke="rgb(0,0,0)" stroke-linejoin="miter" stroke-linecap="square" stroke-miterlimit="3"/><clipPath id="_clipPath_52D3HxzXCOwzy7m07WKYN07dgmaLw98a"><path d=" M 373.5 358 L 326.5 401 L 209.5 268 L 215.5 236 L 138.5 129 L 161.5 111 L 242.5 221 L 261.5 221 L 373.5 358 Z " fill="rgb(252,254,255)" vector-effect="non-scaling-stroke" stroke-width="1" stroke="rgb(0,0,0)" stroke-linejoin="miter" stroke-linecap="square" stroke-miterlimit="3"/></clipPath><g clip-path="url(#_clipPath_52D3HxzXCOwzy7m07WKYN07dgmaLw98a)"><path d=" M 273.5 226 L 228.5 265 L 327.5 377 L 403.5 308 L 273.5 226 Z " fill="rgb(254,254,253)" vector-effect="non-scaling-stroke" stroke-width="1" stroke="rgb(0,0,0)" stroke-linejoin="miter" stroke-linecap="butt" stroke-miterlimit="3"/><clipPath id="_clipPath_iEItegvj8JhKvyugX7F6YxbGASiEg5xG"><path d=" M 273.5 226 L 228.5 265 L 327.5 377 L 403.5 308 L 273.5 226 Z " fill="rgb(254,254,253)" vector-effect="non-scaling-stroke" stroke-width="1" stroke="rgb(0,0,0)" stroke-linejoin="miter" stroke-linecap="butt" stroke-miterlimit="3"/></clipPath><g clip-path="url(#_clipPath_iEItegvj8JhKvyugX7F6YxbGASiEg5xG)"><line x1="262.5" y1="264" x2="290.5" y2="241" vector-effect="non-scaling-stroke" stroke-width="1" stroke="rgb(0,0,0)" stroke-linejoin="miter" stroke-linecap="square" stroke-miterlimit="3"/><line x1="273.5" y1="275" x2="301.5" y2="249" vector-effect="non-scaling-stroke" stroke-width="1" stroke="rgb(0,0,0)" stroke-linejoin="miter" stroke-linecap="square" stroke-miterlimit="3"/><line x1="260.5" y1="302" x2="306.5" y2="261" vector-effect="non-scaling-stroke" stroke-width="1" stroke="rgb(0,0,0)" stroke-linejoin="miter" stroke-linecap="square" stroke-miterlimit="3"/><line x1="288.5" y1="296" x2="316.5" y2="271" vector-effect="non-scaling-stroke" stroke-width="1" stroke="rgb(0,0,0)" stroke-linejoin="miter" stroke-linecap="square" stroke-miterlimit="3"/><line x1="299.5" y1="308" x2="326.5" y2="285" vector-effect="non-scaling-stroke" stroke-width="1" stroke="rgb(0,0,0)" stroke-linejoin="miter" stroke-linecap="square" stroke-miterlimit="3"/><line x1="289.5" y1="337" x2="334.5" y2="297" vector-effect="non-scaling-stroke" stroke-width="1" stroke="rgb(0,0,0)" stroke-linejoin="miter" stroke-linecap="square" stroke-miterlimit="3"/><line x1="316.5" y1="333" x2="341.5" y2="311" vector-effect="non-scaling-stroke" stroke-width="1" stroke="rgb(0,0,0)" stroke-linejoin="miter" stroke-linecap="square" stroke-miterlimit="3"/><line x1="326.5" y1="345" x2="351.5" y2="320" vector-effect="non-scaling-stroke" stroke-width="1" stroke="rgb(0,0,0)" stroke-linejoin="miter" stroke-linecap="square" stroke-miterlimit="3"/><line x1="335.5" y1="353" x2="361.5" y2="329" vector-effect="non-scaling-stroke" stroke-width="1" stroke="rgb(0,0,0)" stroke-linejoin="miter" stroke-linecap="square" stroke-miterlimit="3"/><line x1="255.5" y1="256" x2="281.5" y2="234" vector-effect="non-scaling-stroke" stroke-width="1" stroke="rgb(0,0,0)" stroke-linejoin="miter" stroke-linecap="butt" stroke-miterlimit="3"/><g opacity="0.98"><path d=" M 224.5 270 L 233.5 270 L 253.5 253 L 257.5 259 L 238.5 275 L 237.5 280 L 240.5 277 L 259.5 261 L 264.5 267 L 245.5 284 L 245.5 289 L 250.5 289 L 270.5 272 L 274.5 277 L 252.5 296 L 264.5 310 L 285.5 293 L 290.5 297 L 267.5 320 L 275.5 323 L 296.5 306 L 301.5 311 L 277.5 333 L 294.5 344 L 313.5 329 L 318.5 335 L 297.5 351 L 307.5 358 L 324.5 342 L 327.5 347 L 310.5 363 L 314.5 365 L 333.5 350 L 337.5 355 L 317.5 373 L 238.5 293 L 224.5 270 Z " fill="rgb(72,96,100)"/></g></g><g id="null"><path d=" M 159.5 138 C 159.5 136.344 160.844 135 162.5 135 C 164.156 135 165.5 136.344 165.5 138 C 165.5 139.656 164.156 141 162.5 141 C 160.844 141 159.5 139.656 159.5 138 Z " fill="rgb(179,251,236)" vector-effect="non-scaling-stroke" stroke-width="1" stroke="rgb(0,0,0)" stroke-linejoin="miter" stroke-linecap="butt" stroke-miterlimit="3"/><path d=" M 171.5 155 C 171.5 153.344 172.844 152 174.5 152 C 176.156 152 177.5 153.344 177.5 155 C 177.5 156.656 176.156 158 174.5 158 C 172.844 158 171.5 156.656 171.5 155 Z " fill="rgb(179,251,236)" vector-effect="non-scaling-stroke" stroke-width="1" stroke="rgb(0,0,0)" stroke-linejoin="miter" stroke-linecap="butt" stroke-miterlimit="3"/><path d=" M 183.5 170 C 183.5 168.344 184.844 167 186.5 167 C 188.156 167 189.5 168.344 189.5 170 C 189.5 171.656 188.156 173 186.5 173 C 184.844 173 183.5 171.656 183.5 170 Z " fill="rgb(179,251,236)" vector-effect="non-scaling-stroke" stroke-width="1" stroke="rgb(0,0,0)" stroke-linejoin="miter" stroke-linecap="butt" stroke-miterlimit="3"/><path d=" M 194.5 184 C 194.5 182.344 195.844 181 197.5 181 C 199.156 181 200.5 182.344 200.5 184 C 200.5 185.656 199.156 187 197.5 187 C 195.844 187 194.5 185.656 194.5 184 Z " fill="rgb(179,251,236)" vector-effect="non-scaling-stroke" stroke-width="1" stroke="rgb(0,0,0)" stroke-linejoin="miter" stroke-linecap="butt" stroke-miterlimit="3"/><path d=" M 215.5 215 C 215.5 213.344 216.844 212 218.5 212 C 220.156 212 221.5 213.344 221.5 215 C 221.5 216.656 220.156 218 218.5 218 C 216.844 218 215.5 216.656 215.5 215 Z " fill="rgb(184,253,238)" vector-effect="non-scaling-stroke" stroke-width="1" stroke="rgb(0,0,0)" stroke-linejoin="miter" stroke-linecap="butt" stroke-miterlimit="3"/></g></g></svg>