<?xml version="1.0" standalone="no"?><!-- Generator: Gravit.io --><svg xmlns="http://www.w3.org/2000/svg" xmlns:xlink="http://www.w3.org/1999/xlink" style="isolation:isolate" viewBox="-0.998 -0.998 513.997 513.997" width="513.997" height="513.997"><path d=" M 0 256 C 0 114.71 114.71 0 256 0 C 397.29 0 512 114.71 512 256 C 512 397.29 397.29 512 256 512 C 114.71 512 0 397.29 0 256 Z " fill="rgb(235,235,235)"/><g id="null"><g id="null"><line x1="388.202" y1="124.098" x2="123.798" y2="387.902" vector-effect="non-scaling-stroke" stroke-width="30.448" stroke="rgb(0,0,0)" stroke-linejoin="miter" stroke-linecap="square" stroke-miterlimit="3"/><line x1="124.098" y1="123.798" x2="387.902" y2="388.202" vector-effect="non-scaling-stroke" stroke-width="30.448" stroke="rgb(0,0,0)" stroke-linejoin="miter" stroke-linecap="square" stroke-miterlimit="3"/><line x1="69.25" y1="256" x2="442.75" y2="256" vector-effect="non-scaling-stroke" stroke-width="30.448" stroke="rgb(0,0,0)" stroke-linejoin="miter" stroke-linecap="square" stroke-miterlimit="3"/><line x1="256" y1="69.25" x2="256" y2="442.75" vector-effect="non-scaling-stroke" stroke-width="30.448" stroke="rgb(0,0,0)" stroke-linejoin="miter" stroke-linecap="square" stroke-miterlimit="3"/></g></g><path d=" M 187 256 C 187 217.918 217.918 187 256 187 C 294.082 187 325 217.918 325 256 C 325 294.082 294.082 325 256 325 C 217.918 325 187 294.082 187 256 Z " fill="rgb(235,235,235)"/><g id="null"><g id="null"><line x1="256" y1="0" x2="256" y2="512" vector-effect="non-scaling-stroke" stroke-width="2" stroke="rgb(0,0,0)" stroke-linejoin="miter" stroke-linecap="square" stroke-miterlimit="3"/><line x1="0" y1="256" x2="512" y2="256" vector-effect="non-scaling-stroke" stroke-width="2" stroke="rgb(0,0,0)" stroke-linejoin="miter" stroke-linecap="square" stroke-miterlimit="3"/></g><g id="null"><line x1="437.225" y1="75.187" x2="74.775" y2="436.813" vector-effect="non-scaling-stroke" stroke-width="2" stroke="rgb(0,0,0)" stroke-linejoin="miter" stroke-linecap="square" stroke-miterlimit="3"/><line x1="75.187" y1="74.775" x2="436.813" y2="437.225" vector-effect="non-scaling-stroke" stroke-width="2" stroke="rgb(0,0,0)" stroke-linejoin="miter" stroke-linecap="square" stroke-miterlimit="3"/></g></g><path d=" M 210.774 256 C 210.774 231.039 231.039 210.774 256 210.774 C 280.961 210.774 301.226 231.039 301.226 256 C 301.226 280.961 280.961 301.226 256 301.226 C 231.039 301.226 210.774 280.961 210.774 256 Z " fill="rgb(235,235,235)" vector-effect="non-scaling-stroke" stroke-width="2" stroke="rgb(0,0,0)" stroke-linejoin="miter" stroke-linecap="square" stroke-miterlimit="3"/><path d=" M 252.65 261.516 C 252.65 259.277 255.964 254.623 260.826 254.623 M 246.121 282.182 C 247.455 285.986 251.339 288.274 255.313 287.597 C 259.287 286.92 262.195 283.476 262.194 279.444 L 262.205 229.801 C 262.205 226.755 263.296 224.285 266.342 224.285 C 269.389 224.285 270.479 226.633 270.479 229.801 C 270.479 249.291 237.384 242.643 237.384 260.503 C 237.384 272.377 255.08 272.549 262.205 272.549 C 266.84 272.549 274.616 270.911 274.616 263.586 C 274.616 256.346 268.306 254.623 262.205 254.623" fill="none" vector-effect="non-scaling-stroke" stroke-width="5.516" stroke="rgb(117,106,66)" stroke-linejoin="miter" stroke-linecap="round" stroke-miterlimit="10"/></svg>