<?xml version="1.0" standalone="no"?><!-- Generator: Gravit.io --><svg xmlns="http://www.w3.org/2000/svg" xmlns:xlink="http://www.w3.org/1999/xlink" style="isolation:isolate" viewBox="0 0 512 512" width="512" height="512"><defs><clipPath id="_clipPath_RL3Cl1qQtpIHLfKDUgk0xN3W4PC2eMrs"><rect width="512" height="512"/></clipPath></defs><g clip-path="url(#_clipPath_RL3Cl1qQtpIHLfKDUgk0xN3W4PC2eMrs)"><path d=" M 490.594 411.156 L 413.829 497.677 L 177.445 279.566 L 182.243 220.645 L 23 41.941 L 61.14 5.095 L 228.172 188.462 L 262.484 184.878 L 490.594 411.156 Z " fill="rgb(252,254,255)" vector-effect="non-scaling-stroke" stroke-width="1" stroke="rgb(0,0,0)" stroke-opacity="100" stroke-linejoin="miter" stroke-linecap="square" stroke-miterlimit="3"/><clipPath id="_clipPath_1qeI3Ed6ArvyX54x8nJJkXI038tvuO1I"><path d=" M 490.594 411.156 L 413.829 497.677 L 177.445 279.566 L 182.243 220.645 L 23 41.941 L 61.14 5.095 L 228.172 188.462 L 262.484 184.878 L 490.594 411.156 Z " fill="rgb(255,255,255)"/></clipPath><g clip-path="url(#_clipPath_1qeI3Ed6ArvyX54x8nJJkXI038tvuO1I)"><g id="Grupo"><path d=" M 285.098 191.643 L 211.191 270.564 L 411.107 454.147 L 535.337 315.2 L 285.098 191.643 Z " fill="rgb(254,254,253)" vector-effect="non-scaling-stroke" stroke-width="1" stroke="rgb(0,0,0)" stroke-opacity="100" stroke-linejoin="miter" stroke-linecap="butt" stroke-miterlimit="3"/><clipPath id="_clipPath_TzVxrEZm9kvD0KllBuDn7FoFl9pfBGLh"><path d=" M 285.098 191.643 L 211.191 270.564 L 411.107 454.147 L 535.337 315.2 L 285.098 191.643 Z " fill="rgb(255,255,255)"/></clipPath><g clip-path="url(#_clipPath_TzVxrEZm9kvD0KllBuDn7FoFl9pfBGLh)"><g id="Grupo"><line x1="272.403" y1="262.343" x2="318.629" y2="215.524" vector-effect="non-scaling-stroke" stroke-width="1" stroke="rgb(0,0,0)" stroke-opacity="100" stroke-linejoin="miter" stroke-linecap="square" stroke-miterlimit="3"/><line x1="294.343" y1="280.133" x2="340.003" y2="227.896" vector-effect="non-scaling-stroke" stroke-width="1" stroke="rgb(0,0,0)" stroke-opacity="100" stroke-linejoin="miter" stroke-linecap="square" stroke-miterlimit="3"/><line x1="275.961" y1="331.345" x2="351.297" y2="248.624" vector-effect="non-scaling-stroke" stroke-width="1" stroke="rgb(0,0,0)" stroke-opacity="100" stroke-linejoin="miter" stroke-linecap="square" stroke-miterlimit="3"/><line x1="325.394" y1="315.227" x2="371.243" y2="264.796" vector-effect="non-scaling-stroke" stroke-width="1" stroke="rgb(0,0,0)" stroke-opacity="100" stroke-linejoin="miter" stroke-linecap="square" stroke-miterlimit="3"/><line x1="347.523" y1="334.822" x2="391.943" y2="288.192" vector-effect="non-scaling-stroke" stroke-width="1" stroke="rgb(0,0,0)" stroke-opacity="100" stroke-linejoin="miter" stroke-linecap="square" stroke-miterlimit="3"/><line x1="334.935" y1="389.08" x2="408.654" y2="308.354" vector-effect="non-scaling-stroke" stroke-width="1" stroke="rgb(0,0,0)" stroke-opacity="100" stroke-linejoin="miter" stroke-linecap="square" stroke-miterlimit="3"/><line x1="382.94" y1="376.762" x2="423.937" y2="332.316" vector-effect="non-scaling-stroke" stroke-width="1" stroke="rgb(0,0,0)" stroke-opacity="100" stroke-linejoin="miter" stroke-linecap="square" stroke-miterlimit="3"/><line x1="403.263" y1="396.546" x2="443.694" y2="346.682" vector-effect="non-scaling-stroke" stroke-width="1" stroke="rgb(0,0,0)" stroke-opacity="100" stroke-linejoin="miter" stroke-linecap="square" stroke-miterlimit="3"/><line x1="421.026" y1="409.296" x2="463.451" y2="361.049" vector-effect="non-scaling-stroke" stroke-width="1" stroke="rgb(0,0,0)" stroke-opacity="100" stroke-linejoin="miter" stroke-linecap="square" stroke-miterlimit="3"/><line x1="258.252" y1="249.216" x2="301.055" y2="204.581" vector-effect="non-scaling-stroke" stroke-width="1" stroke="rgb(0,0,0)" stroke-opacity="100" stroke-linejoin="miter" stroke-linecap="butt" stroke-miterlimit="3"/><g id="Grupo" style="opacity:0.98;"><g opacity="0.98"><path d=" M 204.911 280.348 L 221.164 278.65 L 254.074 244.176 L 262.43 254.257 L 231.137 286.736 L 230.274 295.954 L 235.126 289.971 L 266.419 257.491 L 276.581 267.383 L 245.476 301.669 L 246.419 310.698 L 255.449 309.755 L 288.36 275.281 L 296.527 283.556 L 260.381 322.019 L 284.694 345.037 L 319.41 310.375 L 329.194 316.655 L 291.998 362.53 L 307.011 366.439 L 341.728 331.776 L 351.701 339.862 L 312.51 384.12 L 345.286 400.778 L 376.768 370.105 L 386.929 379.997 L 352.024 412.853 L 371.404 423.608 L 399.085 391.506 L 405.447 399.97 L 377.765 432.072 L 385.366 434.929 L 416.848 404.255 L 425.015 412.53 L 392.293 448.81 L 234.533 319.242 L 204.911 280.348 Z " fill="rgb(72,96,100)"/></g></g></g></g><g id="null"><path d=" M 62.622 54.232 C 62.31 51.241 64.483 48.561 67.474 48.248 C 70.464 47.936 73.145 50.109 73.458 53.1 C 73.77 56.09 71.596 58.771 68.606 59.084 C 65.615 59.396 62.935 57.222 62.622 54.232 Z " fill="rgb(179,251,236)" vector-effect="non-scaling-stroke" stroke-width="1" stroke="rgb(0,0,0)" stroke-opacity="100" stroke-linejoin="miter" stroke-linecap="butt" stroke-miterlimit="3"/><path d=" M 87.5 82.668 C 87.188 79.678 89.361 76.997 92.352 76.684 C 95.343 76.372 98.023 78.546 98.336 81.536 C 98.648 84.527 96.475 87.207 93.484 87.52 C 90.494 87.832 87.813 85.659 87.5 82.668 Z " fill="rgb(179,251,236)" vector-effect="non-scaling-stroke" stroke-width="1" stroke="rgb(0,0,0)" stroke-opacity="100" stroke-linejoin="miter" stroke-linecap="butt" stroke-miterlimit="3"/><path d=" M 112.001 107.493 C 111.689 104.502 113.862 101.821 116.853 101.509 C 119.844 101.197 122.524 103.37 122.837 106.361 C 123.149 109.351 120.976 112.032 117.985 112.344 C 114.994 112.657 112.314 110.483 112.001 107.493 Z " fill="rgb(179,251,236)" vector-effect="non-scaling-stroke" stroke-width="1" stroke="rgb(0,0,0)" stroke-opacity="100" stroke-linejoin="miter" stroke-linecap="butt" stroke-miterlimit="3"/><path d=" M 134.508 130.7 C 134.195 127.709 136.369 125.029 139.359 124.716 C 142.35 124.404 145.031 126.577 145.343 129.568 C 145.656 132.559 143.482 135.239 140.491 135.552 C 137.501 135.864 134.82 133.691 134.508 130.7 Z " fill="rgb(179,251,236)" vector-effect="non-scaling-stroke" stroke-width="1" stroke="rgb(0,0,0)" stroke-opacity="100" stroke-linejoin="miter" stroke-linecap="butt" stroke-miterlimit="3"/><path d=" M 178.28 182.721 C 177.968 179.731 180.142 177.05 183.132 176.737 C 186.123 176.425 188.803 178.598 189.116 181.589 C 189.428 184.58 187.255 187.26 184.264 187.573 C 181.274 187.885 178.593 185.712 178.28 182.721 Z " fill="rgb(184,253,238)" vector-effect="non-scaling-stroke" stroke-width="1" stroke="rgb(0,0,0)" stroke-opacity="100" stroke-linejoin="miter" stroke-linecap="butt" stroke-miterlimit="3"/></g></g></g></g></svg>